# xmcd
#
# Track frame offsets:
#	150
#	10983
#	24371
#	38559
#	52498
#	66660
#	79281
#	91035
#	105171
#	117290
#	128720
#	142250
#	157024
#	172385
#	187029
#	198572
#	213378
#	225091
#	236733
#	248245
#	260708
#
# Disc length: 3618
#
# Revision: 3
# Processed by: cddbd v1.5.1PL0 Copyright (c) Steve Scherf et al.
# Submitted via: EasyCDDAExtractor 6.2.0.3
# Normalized: r2:DSETVAR1
#
DISCID=330e2015
DTITLE=Various Artist - Yodelling Mad Vol 1
DYEAR=2002
DGENRE=Country
TTITLE0=Roy Rogers - Hawaiian Cowboy
TTITLE1=Frank Marvin - Yodellin' Rambling Cowboy
TTITLE2=Goebel Reeves - H.O.B.O. Calling
TTITLE3=Pete Wiggins - I Don't Work For a Living
TTITLE4=Carson Robinson - Yodellin' Tex
TTITLE5=Polly Jenkins - I'm Gonna Straddle My Saddle
TTITLE6=Ernest Tubb - Since The Black Cat Crossed My Path
TTITLE7=Wilf Carter - A Little Log Cabin I Can Always Call Home
TTITLE8=Yodelling Slim Clark - Yodelling Mad
TTITLE9=Rex Allen - Queen of the Rodeo
TTITLE10=Rosalie Allen - I Want to Be a Cowboy Sweetheart
TTITLE11=Cliff Carlisle - That Nasty Swing
TTITLE12=Gene Autrey - The Little Ranch House
TTITLE13=Kenny Roberts - When I'd Yoo-Hoo in the Valley
TTITLE14=Tex Morton - All Set and Saddled
TTITLE15=Elton Britt - That's How the Yodel Was Born
TTITLE16=Patsy Montana - Out On the Lone Prairie
TTITLE17=Jimmie Rogers - The Yodelling Ranger
TTITLE18=Hank Snow - The Texas Cowboy
TTITLE19=Slim Whitman - I'm Casting My Lasso Toward the Sky
TTITLE20=Eddy Arnold - The Cattle Call
EXTD=
EXTT0=
EXTT1=
EXTT2=
EXTT3=
EXTT4=
EXTT5=
EXTT6=
EXTT7=
EXTT8=
EXTT9=
EXTT10=
EXTT11=
EXTT12=
EXTT13=
EXTT14=
EXTT15=
EXTT16=
EXTT17=
EXTT18=
EXTT19=
EXTT20=
PLAYORDER=
